<?xml version="1.0" standalone="no"?>
<!DOCTYPE svg PUBLIC "-//W3C//DTD SVG 20010904//EN"
 "http://www.w3.org/TR/2001/REC-SVG-20010904/DTD/svg10.dtd">
<svg version="1.0" xmlns="http://www.w3.org/2000/svg"
 width="700.000000pt" height="700.000000pt" viewBox="0 0 700.000000 700.000000"
 preserveAspectRatio="xMidYMid meet">
<metadata>
Created by potrace 1.14, written by Peter Selinger 2001-2017
</metadata>
<g transform="translate(0.000000,700.000000) scale(0.100000,-0.100000)"
fill="#000000" stroke="none">
<path d="M3328 6515 c-2 -1 -41 -6 -88 -9 -141 -12 -191 -18 -315 -42 -1069
-207 -1958 -986 -2295 -2014 l-38 -115 -294 0 -293 0 -3 -842 -2 -843 295 0
295 0 9 -22 c5 -13 21 -61 36 -108 149 -462 461 -936 835 -1269 130 -115 157
-137 260 -211 312 -224 636 -377 1005 -475 50 -13 104 -26 120 -29 17 -2 70
-12 119 -21 168 -31 311 -42 521 -43 233 0 335 8 535 43 817 142 1549 628
2011 1335 143 219 275 497 340 717 l24 83 298 0 297 0 0 843 0 842 -291 0
c-160 0 -294 2 -298 5 -5 3 -16 32 -26 65 -87 302 -316 730 -521 975 -205 244
-371 402 -594 566 -236 173 -560 339 -825 421 -44 14 -98 31 -120 38 -54 17
-258 63 -320 71 -27 3 -52 8 -55 9 -3 2 -37 6 -75 10 -39 3 -83 9 -100 12 -31
5 -442 13 -447 8z m317 -39 c180 -7 221 -12 448 -52 141 -24 398 -105 575
-181 639 -272 1166 -760 1484 -1373 91 -177 230 -528 210 -531 -4 -1 -200 -2
-436 -3 l-430 -1 -58 115 c-86 170 -104 201 -205 334 -222 292 -464 493 -788
651 -363 178 -731 246 -1144 212 -540 -44 -1082 -324 -1443 -747 -122 -143
-217 -287 -306 -465 l-50 -100 -430 0 c-237 0 -433 3 -436 5 -2 3 9 43 25 90
17 47 34 96 39 110 80 245 326 666 511 875 100 113 139 154 216 229 232 224
486 400 773 538 162 78 166 80 301 128 94 34 290 91 359 104 14 3 50 10 80 15
30 6 64 13 75 15 11 2 49 7 85 11 36 4 74 9 85 11 11 2 79 7 150 10 72 4 131
8 133 9 2 2 11 1 20 -1 9 -1 80 -5 157 -8z m95 -867 c8 -1 65 -10 125 -21 658
-115 1226 -534 1530 -1129 31 -61 54 -114 50 -117 -4 -4 -883 -7 -1955 -7
l-1948 0 50 100 c180 358 454 659 788 866 262 162 594 278 875 305 39 4 72 8
74 10 3 3 375 -3 411 -7z m3225 -2114 l0 -800 -3462 -3 -3463 -2 -1 30 c0 16
0 363 0 770 0 407 0 755 0 773 l1 33 3462 0 3463 -1 0 -800z m-5412 -944 c177
-368 491 -709 845 -918 197 -116 479 -227 657 -257 17 -3 41 -8 55 -11 152
-30 443 -40 625 -22 722 74 1381 536 1705 1195 l55 112 437 0 437 0 -15 -52
c-32 -109 -128 -338 -201 -478 -355 -686 -947 -1198 -1688 -1459 -160 -57
-440 -121 -598 -137 -34 -3 -93 -10 -132 -14 -74 -8 -455 -5 -515 4 -19 2 -60
7 -90 11 -61 6 -231 34 -240 40 -3 2 -21 6 -40 9 -53 8 -173 41 -280 76 -335
110 -669 293 -950 520 -103 83 -312 284 -380 365 -273 324 -466 669 -585 1043
l-23 72 436 0 437 0 48 -99z m3897 92 c0 -31 -223 -412 -259 -443 -4 -3 -26
-30 -50 -60 -131 -162 -366 -363 -557 -476 -229 -134 -538 -248 -739 -270 -27
-3 -56 -7 -62 -9 -21 -7 -213 -19 -293 -19 -82 1 -264 13 -283 19 -7 2 -29 7
-50 10 -94 13 -201 39 -317 77 -530 173 -978 555 -1235 1054 -30 59 -55 111
-55 116 0 4 878 8 1950 8 1073 0 1950 -3 1950 -7z"/>
<path d="M226 3522 c1 -323 2 -594 3 -602 1 -14 34 -15 256 -15 l254 0 51 50
50 49 0 210 0 210 -46 47 -46 46 46 49 46 48 0 196 0 196 -53 52 -53 52 -254
0 -255 0 1 -588z m392 365 c13 -17 14 -255 1 -263 -13 -7 -137 -12 -161 -6
-14 3 -16 22 -16 142 l-1 137 84 1 c54 1 87 -3 93 -11z m9 -617 c1 -74 -2
-139 -7 -145 -5 -6 -44 -11 -92 -10 l-83 0 -1 148 -2 148 92 -3 91 -3 2 -135z"/>
<path d="M1030 3503 l0 -602 280 0 280 1 0 104 c0 101 -1 104 -22 105 -13 0
-90 1 -173 1 l-150 0 0 496 0 497 -107 0 -108 1 0 -603z"/>
<path d="M1741 3555 l-1 -551 53 -52 52 -51 202 0 201 1 51 51 51 51 0 552 0
551 -105 -1 -105 0 -1 -26 c0 -14 -1 -232 -1 -485 0 -298 -4 -464 -10 -472
-15 -19 -157 -18 -164 1 -3 8 -6 232 -7 498 l-2 483 -106 1 -107 0 -1 -551z"/>
<path d="M2550 3504 l0 -604 290 1 290 1 0 104 c0 76 -3 104 -12 105 -7 1 -89
2 -183 2 l-170 2 0 138 c0 76 2 142 5 147 3 5 64 11 135 12 l130 3 0 100 0
100 -135 5 -135 5 0 135 0 135 95 2 c52 1 134 2 183 2 l87 1 0 103 0 103 -290
0 -290 1 0 -603z"/>
<path d="M3310 3506 l0 -605 108 0 107 0 0 232 -1 232 149 0 148 0 53 52 52
52 0 270 -1 270 -50 51 -49 50 -258 0 -258 0 0 -604z m390 375 c4 -8 8 -76 8
-151 0 -161 4 -156 -113 -155 l-70 0 -2 150 c-1 83 -1 155 1 161 6 16 165 12
176 -5z"/>
<path d="M4102 3508 l3 -603 105 0 105 0 0 228 c0 125 2 227 5 228 38 8 93 4
97 -8 3 -7 26 -111 52 -231 l46 -217 107 -3 c97 -2 106 -1 103 15 -2 10 -9 41
-15 68 -6 28 -12 59 -14 70 -9 47 -58 281 -62 296 -2 9 16 37 43 67 l48 52 0
268 1 267 -51 52 -50 53 -263 0 -262 0 2 -602z m394 378 c19 -7 21 -288 2
-304 -7 -5 -51 -9 -98 -8 l-84 1 -1 150 c0 83 3 155 7 160 7 10 147 11 174 1z"/>
<path d="M4910 3503 l0 -603 98 0 c53 0 102 4 108 8 8 5 11 181 11 603 l0 596
-109 -1 -108 0 0 -603z"/>
<path d="M5324 4095 c-1 -5 -2 -275 -1 -600 l2 -590 105 0 105 0 2 329 c1 181
4 330 5 332 2 1 48 -124 102 -279 54 -155 108 -305 118 -334 l19 -52 113 0
112 0 0 603 0 602 -105 0 -106 0 -5 -336 -5 -335 -42 120 c-34 100 -118 339
-180 512 l-14 41 -111 -1 c-64 -1 -112 -6 -114 -12z"/>
<path d="M6164 4095 c-3 -6 -3 -54 -2 -105 l3 -93 102 1 103 2 2 -497 3 -498
105 0 105 0 3 498 2 498 88 -1 c48 -1 95 -1 105 -1 15 1 17 13 17 104 l0 103
-316 0 c-227 0 -317 -3 -320 -11z"/>
</g>
</svg>
