<?xml version="1.0" encoding="UTF-8"?>
<svg width="160px" height="160px" viewBox="0 0 160 160" version="1.1" xmlns="http://www.w3.org/2000/svg" xmlns:xlink="http://www.w3.org/1999/xlink">
    <!-- Generator: Sketch 63.1 (92452) - https://sketch.com -->
    <title>file download</title>
    <desc>Created with Sketch.</desc>
    <g id="file-download" stroke="none" stroke-width="1" fill="none" fill-rule="evenodd">
        <g id="file-download-copy">
            <rect id="Rectangle" x="0" y="0" width="160" height="160"></rect>
            <g id="Group" transform="translate(45.000000, 33.000000)" fill="#AFAFAF">
                <path d="M88.8647114,115.100952 L88.8647114,120.115238 C88.8647114,121.877529 90.2373059,123.321314 91.9783055,123.448927 L92.2294175,123.458096 L107.370595,123.458096 C109.144404,123.458096 110.597626,122.094414 110.726072,120.36472 L110.735301,120.115238 L110.735301,115.100952 L114.100007,115.100952 L114.100007,120.115238 C114.100007,123.695765 111.266977,126.618899 107.70646,126.792771 L107.370595,126.800953 L92.2294175,126.800953 C88.6254886,126.800953 85.6832491,123.98632 85.508241,120.448923 L85.5000054,120.115238 L85.5000054,115.100952 L88.8647114,115.100952 Z M106.207149,91.700951 L106.207005,106.889951 L111.500007,106.890616 L99.1500061,119.000953 L86.8000054,106.890616 L93.8570054,106.889951 L93.8571487,91.700951 L106.207149,91.700951 Z" id="Combined-Shape" fill-rule="nonzero"></path>
                <polygon id="Path" points="54.359503 7.10542736e-15 70.2000039 15.8405009 70.2000039 93.6009505 0 93.6009505 0 0.00094537923"></polygon>
            </g>
        </g>
    </g>
</svg>