<?xml version="1.0" encoding="utf-8"?>
<!DOCTYPE svg PUBLIC "-//W3C//DTD SVG 1.1//EN" "http://www.w3.org/Graphics/SVG/1.1/DTD/svg11.dtd">
<svg version="1.1" id="Layer_1" xmlns="http://www.w3.org/2000/svg" xmlns:xlink="http://www.w3.org/1999/xlink" viewBox="0 0 30 30" enable-background="new 0 0 30 30" xml:space="preserve">
<path fill="currentColor" d="M11.6,0c2.273,0,4.547,0,6.82,0c0.029,0.004,0.059,0.011,0.088,0.011c0.916,0.009,1.832,0.038,2.746,0.084
	c0.496,0.025,0.99,0.069,1.48,0.142c0.662,0.099,1.307,0.26,1.934,0.486c1.648,0.595,2.938,1.641,3.887,3.105
	c0.588,0.908,0.934,1.916,1.145,2.974c0.143,0.711,0.207,1.43,0.234,2.152c0.023,0.539,0.033,1.079,0.049,1.618
	c0.004,0.09,0.012,0.179,0.018,0.268c0,2.773,0,5.546,0,8.32c-0.004,0.035-0.012,0.072-0.012,0.107
	c-0.008,0.666-0.029,1.332-0.064,1.998c-0.025,0.49-0.068,0.977-0.141,1.461c-0.104,0.697-0.277,1.375-0.525,2.035
	c-0.574,1.539-1.561,2.756-2.908,3.68c-0.803,0.551-1.697,0.9-2.637,1.139c-0.807,0.203-1.631,0.299-2.459,0.336
	c-0.676,0.029-1.352,0.047-2.027,0.07c-0.023,0-0.045,0.008-0.066,0.014c-2.762,0-5.521,0-8.28,0
	c-0.026-0.006-0.052-0.014-0.077-0.014c-0.486-0.016-0.973-0.027-1.459-0.047c-0.353-0.014-0.705-0.033-1.058-0.057
	c-0.549-0.035-1.093-0.111-1.631-0.225c-0.766-0.162-1.507-0.402-2.201-0.764c-1.667-0.869-2.872-2.17-3.595-3.91
	c-0.419-1.01-0.633-2.066-0.716-3.152c-0.04-0.531-0.061-1.064-0.082-1.596c-0.021-0.52-0.03-1.039-0.046-1.559
	C0.014,18.592,0.005,18.506,0,18.42c0-2.273,0-4.546,0-6.82c0.004-0.029,0.01-0.058,0.012-0.087c0.006-0.187,0.011-0.373,0.017-0.56
	c0.022-0.666,0.045-1.332,0.068-1.998c0.017-0.489,0.056-0.977,0.12-1.463c0.084-0.639,0.221-1.265,0.424-1.877
	C0.963,4.645,1.43,3.753,2.104,2.978c0.722-0.831,1.562-1.505,2.564-1.969c1.086-0.503,2.231-0.768,3.419-0.866
	c0.441-0.036,0.884-0.061,1.326-0.077c0.64-0.023,1.279-0.034,1.919-0.051C11.421,0.012,11.511,0.005,11.6,0z M2.725,15.002
	c0.002,0,0.004,0,0.005,0c0,1.06-0.002,2.121,0.001,3.179c0.003,0.848,0.018,1.693,0.064,2.539c0.023,0.404,0.048,0.811,0.084,1.215
	c0.042,0.467,0.133,0.924,0.261,1.373c0.281,0.988,0.789,1.834,1.568,2.516c0.535,0.465,1.148,0.779,1.817,0.998
	c0.705,0.229,1.433,0.328,2.17,0.375c0.425,0.025,0.852,0.047,1.277,0.057c0.813,0.02,1.626,0.037,2.439,0.041
	c1.153,0.008,2.307,0.004,3.46,0.004c0.763-0.002,1.526-0.006,2.29-0.01c0.877-0.004,1.752-0.023,2.627-0.064
	c0.49-0.023,0.979-0.051,1.465-0.121c0.545-0.078,1.078-0.205,1.594-0.404c1.195-0.461,2.084-1.268,2.662-2.41
	c0.385-0.758,0.566-1.576,0.648-2.416c0.031-0.318,0.053-0.639,0.066-0.957c0.027-0.67,0.055-1.34,0.068-2.008
	c0.012-0.641,0.012-1.281,0.012-1.92c0-1.537,0-3.074-0.002-4.61c0-0.396,0.002-0.794-0.01-1.19
	c-0.018-0.709-0.045-1.418-0.068-2.128c-0.016-0.46-0.055-0.917-0.123-1.373c-0.082-0.549-0.217-1.083-0.426-1.598
	c-0.469-1.157-1.264-2.019-2.377-2.58c-0.758-0.383-1.576-0.565-2.418-0.648c-0.316-0.031-0.637-0.052-0.955-0.065
	c-0.674-0.027-1.346-0.054-2.02-0.067c-0.633-0.014-1.266-0.013-1.898-0.013c-1.371-0.001-2.74,0.002-4.11,0.002
	c-1.144,0-2.286,0.007-3.429,0.06c-0.489,0.022-0.979,0.04-1.466,0.1C7.533,2.934,7.07,3.024,6.615,3.159
	C5.628,3.454,4.797,3.985,4.131,4.776C3.712,5.273,3.426,5.838,3.22,6.45C2.975,7.175,2.87,7.926,2.822,8.686
	C2.797,9.105,2.777,9.525,2.766,9.944c-0.019,0.687-0.034,1.373-0.039,2.06C2.72,13.002,2.725,14.002,2.725,15.002z M15.018,22.715
	c-4.266-0.012-7.71-3.439-7.709-7.709c0.001-4.312,3.494-7.7,7.698-7.708c4.247-0.008,7.706,3.439,7.714,7.703
	C22.727,19.205,19.338,22.697,15.018,22.715z M20.01,15.005c0.006-2.739-2.217-4.973-4.951-4.996
	c-2.771-0.023-5.038,2.219-5.039,4.987C10.018,17.762,12.25,20,15.01,20C17.775,20,20.01,17.768,20.01,15.005z M21.219,6.997
	c-0.002,0.998,0.805,1.806,1.803,1.805c0.996,0,1.795-0.802,1.803-1.796c0.008-0.992-0.812-1.817-1.799-1.809
	C22.068,5.182,21.219,5.968,21.219,6.997z"/>
</svg>
