<svg width="30" height="22" viewBox="0 0 30 22" xmlns="http://www.w3.org/2000/svg">
    <path d="M29.899 6.825c.036-.022.06-.057.094-.092V21h-.037c0 .553-.446 1-.999 1l-.015-.003H1.013L.998 22A.998.998 0 0 1 0 21c0-.082.028-.154.046-.23V6.732c.176.185.34.345.491.505.48.47 1.007.858 1.544 1.26a331.22 331.22 0 0 1 6.774 5.255c.677.55 1.368 1.088 2.047 1.65.608.49 1.287.881 2.012 1.2.479.208.971.38 1.485.46a4.337 4.337 0 0 0 1.872-.138 9.001 9.001 0 0 0 2.913-1.559c1.007-.812 2.013-1.637 3.04-2.437 1.627-1.271 3.277-2.53 4.915-3.804.596-.457 1.215-.914 1.811-1.395.342-.273.634-.607.949-.904zM.984 3.95c.502.813 1.17 1.501 1.93 2.085l5.544 4.294c.819.629 1.626 1.247 2.434 1.89.49.39.97.802 1.485 1.189.48.367.982.71 1.544.975.329.16.655.262 1.018.274.422.022.808-.092 1.183-.265.597-.285 1.146-.674 1.672-1.074.561-.435 1.112-.905 1.674-1.353 2.094-1.615 4.176-3.229 6.268-4.854.528-.401 1.065-.801 1.58-1.226.69-.561 1.239-1.248 1.73-1.98.317-.48.598-.985.772-1.534.16-.451.189-.911.18-1.371h-.042a.984.984 0 0 0-.832-.966V.001h-.16L28.957 0l-.007.001H1.006L1 0a.998.998 0 0 0-.998 1c0 .154.04.295.103.426.108.896.395 1.745.88 2.524z" fill="#FFF" fill-rule="nonzero"/>
</svg>
