<svg width="30" height="30" viewBox="0 0 30 30" xmlns="http://www.w3.org/2000/svg">
    <path d="M28.516 28.564c-.63 1.188-1.33 1.338-1.738 1.427-.772.002-1.552.038-2.34-.044-2.43-.26-4.8-1.151-7.053-2.338-4.056-2.13-7.618-5.155-10.629-8.646-2.187-2.531-4.039-5.333-5.31-8.371C.577 8.516-.017 6.376 0 4.232c.01-1.118.073-1.839.87-2.441.44-.331 1.12-.662 1.5-.849C3.488.386 3.22.487 4.334.056c.571-.22 1.395.24 1.731.834a78.795 78.795 0 0 0 2.62 4.286c.444.678.355 1.546-.166 2.167a54.905 54.905 0 0 0-1.366 1.678c-.439.564-.505 1.205-.256 1.946.5 1.485 1.277 2.862 2.225 4.137 2.073 2.791 4.607 5.253 7.63 6.97.866.493 1.82.808 2.744 1.156.384.144.75.083 1.073-.107.35-.208.7-.425 1.021-.672.386-.297.761-.612 1.106-.954.627-.611 1.651-.495 2.173-.147a69.306 69.306 0 0 0 4.26 2.604c.678.383 1.025 1.203.804 1.931l-1.417 2.679z" fill="#FFF" fill-rule="nonzero"/>
</svg>
