<svg width="192" height="50" viewBox="0 0 192 50" xmlns="http://www.w3.org/2000/svg">
    <path d="M173.31 0v6.1h6.221v28.983h6.261V6.1h6.207V0H173.31zm-10.712 0v20.002L155.532 0h-6.636v35.083h6.261V15.081l6.998 19.841.067.161h6.637V0h-6.261zM136.87 35.083h6.26V0h-6.26v35.083zM113.273 0v35.083h6.261V21.61h2.99l2.815 13.473h6.181l-2.842-13.634 2.788-2.802V2.963L128.503 0h-15.23zm6.261 6.14h5.175l.496.496v8.352l-.496.523h-5.175V6.14zM90.173 0v35.083h6.247V21.61h8.755l2.963-2.963V2.963L105.175 0H90.173zm6.247 6.14h4.88l.523.496v8.338l-.523.537h-4.88V6.14zM68.024 0v35.083h17.014v-6.1H74.285v-8.687h7.977v-6.099h-7.977V6.1h10.753V0H68.024zM55.998 0v28.5l-.496.483h-4.236l-.497-.483V0h-6.261v32.12l2.963 2.963h11.825l2.963-2.963V0h-6.261zM23.727 0v35.083h16.33v-6.1H30.028V0h-6.301zM.264 0v35.083h15.003l2.963-2.963V19.895l-2.708-2.722 2.708-2.722V2.963L15.267 0H.264zm6.302 6.006h4.907l.496.523v7.131l-.496.537H6.566V6.006zm0 14.29h4.92l.483.483v7.628l-.496.536H6.566v-8.647zm58.685 20.577-.743.746v3.734l.743.745h2.119l.18.18v2.065l-.18.18h-1.161l-.18-.18v-.972h-1.521v1.885l.743.744h3.089l.743-.744v-3.891l-.743-.745h-2.131l-.18-.18v-1.897l.18-.18h1.161l.18.18v.96h1.533v-1.884l-.743-.746h-3.089zm-6.768 0v1.478h1.641V50h1.521v-7.649h1.641v-1.478h-4.803zm-5.88 0V50h1.521v-3.554h.91L55.776 50h1.498l-.743-3.554.743-.745v-4.082l-.743-.746h-3.928zm1.521 1.49h1.461l.168.168v2.257l-.168.18h-1.461v-2.605zm-6.432-1.49L45.537 50h1.556l.408-1.969h1.868L49.776 50h1.557l-2.156-9.127h-1.485zm.743 2.607.634 3.074H47.8l.635-3.074zm-11.474-2.607V50h4.18v-1.477h-2.647v-7.65h-1.533zm-4.911 0L29.895 50h1.556l.408-1.969h1.867L34.134 50h1.557l-2.156-9.127H32.05zm.743 2.607.634 3.074h-1.269l.635-3.074zM27.104 50h1.521v-9.127h-1.521V50zm-6.108-9.127v1.478h1.64V50h1.521v-7.649h1.64v-1.478h-4.801zm-5.881 0V50h1.52v-3.554h.911L18.289 50h1.496l-.742-3.554.742-.745v-4.082l-.742-.746h-3.928zm1.52 1.49h1.462l.167.168v2.257l-.167.18h-1.462v-2.605zm-6.431-1.49L8.048 50h1.557l.407-1.969h1.869L12.287 50h1.557l-2.155-9.127h-1.485zm.742 2.607.635 3.074h-1.269l.634-3.074zm-6.06-2.607-1.497 4.312-1.498-4.312H0V50h1.521v-6.16l1.472 4.203h.791l1.473-4.203V50h1.521v-9.127H4.886z" fill="#FFF" fill-rule="evenodd"/>
</svg>
