<?xml version="1.0" encoding="UTF-8" standalone="no"?>
<svg
   xmlns:dc="http://purl.org/dc/elements/1.1/"
   xmlns:cc="http://creativecommons.org/ns#"
   xmlns:rdf="http://www.w3.org/1999/02/22-rdf-syntax-ns#"
   xmlns:svg="http://www.w3.org/2000/svg"
   xmlns="http://www.w3.org/2000/svg"
   xmlns:sodipodi="http://sodipodi.sourceforge.net/DTD/sodipodi-0.dtd"
   xmlns:inkscape="http://www.inkscape.org/namespaces/inkscape"
   width="200"
   height="200"
   version="1.1"
   id="svg1037"
   sodipodi:docname="icon-file-video.svg"
   inkscape:version="0.92.4 (5da689c313, 2019-01-14)">
  <metadata
     id="metadata1043">
    <rdf:RDF>
      <cc:Work
         rdf:about="">
        <dc:format>image/svg+xml</dc:format>
        <dc:type
           rdf:resource="http://purl.org/dc/dcmitype/StillImage" />
        <dc:title></dc:title>
      </cc:Work>
    </rdf:RDF>
  </metadata>
  <defs
     id="defs1041" />
  <sodipodi:namedview
     pagecolor="#ffffff"
     bordercolor="#666666"
     borderopacity="1"
     objecttolerance="10"
     gridtolerance="10"
     guidetolerance="10"
     inkscape:pageopacity="0"
     inkscape:pageshadow="2"
     inkscape:window-width="1920"
     inkscape:window-height="1003"
     id="namedview1039"
     showgrid="false"
     inkscape:zoom="1.18"
     inkscape:cx="100"
     inkscape:cy="100"
     inkscape:window-x="0"
     inkscape:window-y="0"
     inkscape:window-maximized="1"
     inkscape:current-layer="svg1037" />
  <path
     d="m 144.08752,126.8912 c 0,2.09822 -0.8989,4.19704 -2.24844,5.54598 l -25.33366,25.33366 c -1.34894,1.49916 -3.29754,2.39865 -5.54598,2.39865 H 61.640467 c -4.19704,0 -7.494586,-3.29814 -7.494586,-7.49518 V 47.741695 c 0,-4.19704 3.296945,-7.495187 7.495187,-7.495187 h 74.951862 c 4.19704,0 7.49519,3.298147 7.49519,7.495187 z"
     id="path1029"
     inkscape:connector-curvature="0"
     style="fill:#2d2d2d;stroke-width:0.60086471" />
  <path
     d="m 83.526363,100.208 c -0.449447,0 -1.048509,-0.15022 -1.498556,-0.449447 -0.899495,-0.599663 -1.499158,-1.499157 -1.499158,-2.548267 V 61.233511 c 0,-1.04971 0.599663,-2.09882 1.499158,-2.548868 a 2.7231189,2.7231189 0 0 1 2.998315,0 l 31.179468,17.988688 c 0.8995,0.599663 1.49916,1.499157 1.49916,2.548267 0,1.04911 -0.59966,2.098821 -1.49916,2.548267 L 85.026122,99.758553 C 84.576074,100.05838 84.126627,100.208 83.526964,100.208 Z m 2.998315,-33.728339 v 25.63349 L 108.71041,79.221598 Z"
     id="path1031"
     inkscape:connector-curvature="0"
     style="fill:#ffffff;stroke-width:0.60086471" />
  <g
     aria-label="Video"
     style="font-weight:700;font-size:40px;line-height:1.25;font-family:'Miriam Libre';-inkscape-font-specification:'Miriam Libre, Bold';font-variant-ligatures:normal;font-variant-caps:normal;font-variant-numeric:normal;font-feature-settings:normal;text-align:start;letter-spacing:0;word-spacing:0;fill:#ffffff"
     font-weight="700"
     font-size="40"
     letter-spacing="0"
     word-spacing="0"
     id="g1035"
     transform="matrix(0.60086471,0,0,0.60086471,39.561092,39.996549)">
    <path
       d="m 55.708,156.782 q -0.44,0 -0.8,-0.24 -0.32,-0.24 -0.44,-0.64 l -8.68,-26.68 q -0.04,-0.12 -0.04,-0.32 0,-0.4 0.28,-0.64 0.28,-0.28 0.68,-0.28 h 2.8 q 0.44,0 0.76,0.28 0.36,0.24 0.48,0.64 l 6.48,20.88 6.48,-20.88 q 0.12,-0.4 0.44,-0.64 0.36,-0.28 0.8,-0.28 h 2.88 q 0.4,0 0.68,0.28 0.28,0.24 0.28,0.64 0,0.2 -0.04,0.32 l -8.68,26.68 q -0.12,0.4 -0.48,0.64 -0.32,0.24 -0.76,0.24 z m 21.41,-25.8 q -0.36,0 -0.6,-0.24 -0.24,-0.24 -0.24,-0.6 v -4.36 q 0,-0.36 0.24,-0.6 0.24,-0.24 0.6,-0.24 h 2.72 q 0.36,0 0.6,0.24 0.24,0.24 0.24,0.6 v 4.36 q 0,0.36 -0.24,0.6 -0.24,0.24 -0.6,0.24 z m 0.96,25.6 q -0.84,0 -1.44,-0.56 -0.56,-0.6 -0.56,-1.44 v -16.36 h -3.24 q -0.36,0 -0.6,-0.24 -0.24,-0.24 -0.24,-0.6 v -2.88 q 0,-0.36 0.24,-0.6 0.24,-0.24 0.6,-0.24 h 6.04 q 0.84,0 1.4,0.6 0.6,0.56 0.6,1.4 v 16.36 h 3.24 q 0.36,0 0.6,0.24 0.24,0.24 0.24,0.6 v 2.88 q 0,0.36 -0.24,0.6 -0.24,0.24 -0.6,0.24 z m 18.909,0.52 q -2.32,0 -4.36,-1.24 -2.04,-1.28 -3.28,-3.4 -1.2,-2.12 -1.2,-4.56 v -5.56 q 0,-2.44 1.2,-4.56 1.2,-2.12 3.24,-3.36 2.04,-1.28 4.44,-1.28 1.52,0 2.92,0.48 1.44,0.48 2.48,1.36 v -8.2 q 0,-0.36 0.24,-0.6 0.24,-0.24 0.6,-0.24 h 3.12 q 0.36,0 0.6,0.24 0.24,0.24 0.24,0.6 v 28.96 q 0,0.36 -0.24,0.6 -0.24,0.24 -0.6,0.24 h -2.6 q -0.36,0 -0.6,-0.24 -0.24,-0.24 -0.24,-0.6 v -1.92 q -1.08,1.64 -2.6,2.48 -1.52,0.8 -3.36,0.8 z m 0.68,-4.6 q 1.96,0 3.36,-1.36 1.4,-1.4 1.4,-3.36 v -5.32 q 0,-1.96 -1.4,-3.32 -1.4,-1.4 -3.36,-1.4 -1.96,0 -3.36,1.4 -1.36,1.36 -1.36,3.32 v 5.32 q 0,1.96 1.36,3.36 1.4,1.36 3.36,1.36 z m 24.843,4.08 q -2.6,0 -4.8,-1.28 -2.16,-1.28 -3.44,-3.48 -1.28,-2.2 -1.28,-4.8 v -4.32 q 0,-2.6 1.28,-4.8 1.28,-2.2 3.44,-3.48 2.2,-1.28 4.8,-1.28 2.6,0 4.76,1.28 2.2,1.28 3.48,3.48 1.28,2.2 1.28,4.8 v 2.68 q 0,0.72 -0.52,1.24 -0.48,0.48 -1.2,0.48 h -12.52 v 0.2 q 0,1.96 1.36,3.36 1.4,1.36 3.36,1.36 h 6.36 q 0.36,0 0.6,0.24 0.24,0.24 0.24,0.6 v 2.88 q 0,0.36 -0.24,0.6 -0.24,0.24 -0.6,0.24 z m 4.72,-13.8 v -0.36 q 0,-1.96 -1.4,-3.32 -1.36,-1.4 -3.32,-1.4 -1.96,0 -3.36,1.4 -1.36,1.36 -1.36,3.32 v 0.36 z m 18.952,14.32 q -2.6,0 -4.8,-1.24 -2.16,-1.28 -3.44,-3.44 -1.28,-2.16 -1.28,-4.68 v -5.24 q 0,-2.52 1.28,-4.68 1.28,-2.16 3.44,-3.4 2.2,-1.28 4.8,-1.28 2.6,0 4.76,1.28 2.2,1.24 3.48,3.4 1.28,2.16 1.28,4.68 v 5.24 q 0,2.52 -1.28,4.68 -1.28,2.16 -3.48,3.44 -2.16,1.24 -4.76,1.24 z m 0,-4.64 q 1.96,0 3.32,-1.36 1.4,-1.4 1.4,-3.36 v -5.24 q 0,-1.96 -1.4,-3.32 -1.36,-1.4 -3.32,-1.4 -1.96,0 -3.36,1.4 -1.36,1.36 -1.36,3.32 v 5.24 q 0,1.96 1.36,3.36 1.4,1.36 3.36,1.36 z"
       id="path1033"
       inkscape:connector-curvature="0" />
  </g>
</svg>
