<?xml version="1.0" encoding="UTF-8" standalone="no"?>
<!-- Generator: Adobe Illustrator 24.0.0, SVG Export Plug-In . SVG Version: 6.00 Build 0)  -->

<svg
   xmlns:dc="http://purl.org/dc/elements/1.1/"
   xmlns:cc="http://creativecommons.org/ns#"
   xmlns:rdf="http://www.w3.org/1999/02/22-rdf-syntax-ns#"
   xmlns:svg="http://www.w3.org/2000/svg"
   xmlns="http://www.w3.org/2000/svg"
   xmlns:sodipodi="http://sodipodi.sourceforge.net/DTD/sodipodi-0.dtd"
   xmlns:inkscape="http://www.inkscape.org/namespaces/inkscape"
   version="1.1"
   id="Layer_1"
   x="0px"
   y="0px"
   viewBox="0 0 200 200"
   xml:space="preserve"
   sodipodi:docname="icon-file-document.svg"
   width="200"
   height="200"
   inkscape:version="0.92.4 (5da689c313, 2019-01-14)"><metadata
   id="metadata21"><rdf:RDF><cc:Work
       rdf:about=""><dc:format>image/svg+xml</dc:format><dc:type
         rdf:resource="http://purl.org/dc/dcmitype/StillImage" /><dc:title /></cc:Work></rdf:RDF></metadata><defs
   id="defs19" /><sodipodi:namedview
   pagecolor="#ffffff"
   bordercolor="#666666"
   borderopacity="1"
   objecttolerance="10"
   gridtolerance="10"
   guidetolerance="10"
   inkscape:pageopacity="0"
   inkscape:pageshadow="2"
   inkscape:window-width="1920"
   inkscape:window-height="1003"
   id="namedview17"
   showgrid="false"
   inkscape:zoom="2.1790884"
   inkscape:cx="243.16297"
   inkscape:cy="89.677408"
   inkscape:window-x="0"
   inkscape:window-y="0"
   inkscape:window-maximized="1"
   inkscape:current-layer="Layer_1" />
<style
   type="text/css"
   id="style2">
	.st0{fill:#4A90E2;}
	.st1{fill:#FFFFFF;}
</style>
<path
   class="st0"
   d="m 144.57779,126.98961 c 0,2.09611 -0.89833,4.19223 -2.24584,5.53973 l -25.30311,25.30312 c -1.34751,1.49722 -3.2939,2.39556 -5.53974,2.39556 v 0 H 62.23037 c -4.192232,0 -7.486129,-3.2939 -7.486129,-7.48613 V 47.936077 c 0,-4.192232 3.293897,-7.486129 7.486129,-7.486129 h 74.86129 c 4.19223,0 7.48613,3.293897 7.48613,7.486129 z"
   id="path4"
   inkscape:connector-curvature="0"
   style="fill:#4a90e2;stroke-width:1.49722588" />
<g
   id="g14"
   transform="matrix(1.4972259,0,0,1.4972259,39.771982,40.449948)">
	<path
   class="st1"
   d="M 54,16 H 26 c -0.6,0 -1,-0.4 -1,-1 v -2 c 0,-0.6 0.4,-1 1,-1 h 28 c 0.5,0 1,0.4 1,1 v 2 c 0,0.6 -0.5,1 -1,1 z"
   id="path6"
   inkscape:connector-curvature="0"
   style="fill:#ffffff" />
	<path
   class="st1"
   d="M 39,40 H 26 c -0.6,0 -1,-0.5 -1,-1 v -2 c 0,-0.5 0.4,-1 1,-1 h 13 c 0.5,0 1,0.5 1,1 v 2 c 0,0.6 -0.5,1 -1,1 z"
   id="path8"
   inkscape:connector-curvature="0"
   style="fill:#ffffff" />
	<path
   class="st1"
   d="M 54,32 H 26 c -0.6,0 -1,-0.5 -1,-1 v -2 c 0,-0.6 0.4,-1 1,-1 h 28 c 0.5,0 1,0.4 1,1 v 2 c 0,0.6 -0.5,1 -1,1 z"
   id="path10"
   inkscape:connector-curvature="0"
   style="fill:#ffffff" />
	<path
   class="st1"
   d="M 54,24 H 26 c -0.6,0 -1,-0.4 -1,-1 v -2 c 0,-0.5 0.4,-1 1,-1 h 28 c 0.5,0 1,0.5 1,1 v 2 c 0,0.6 -0.5,1 -1,1 z"
   id="path12"
   inkscape:connector-curvature="0"
   style="fill:#ffffff" />
</g>
<text
   xml:space="preserve"
   style="font-style:normal;font-variant:normal;font-weight:bold;font-stretch:normal;font-size:24.03709602px;line-height:1.25;font-family:'Miriam Libre';-inkscape-font-specification:'Miriam Libre, Bold';font-variant-ligatures:normal;font-variant-caps:normal;font-variant-numeric:normal;font-feature-settings:normal;text-align:start;letter-spacing:0px;word-spacing:0px;writing-mode:lr-tb;text-anchor:start;fill:#ffffe4;fill-opacity:1;stroke:none;stroke-width:0.60092741"
   x="77.253555"
   y="135.37611"
   id="text833"><tspan
     sodipodi:role="line"
     id="tspan831"
     x="77.253555"
     y="135.37611"
     style="stroke-width:0.60092741">File</tspan></text>

</svg>