<?xml version="1.0" encoding="UTF-8" standalone="no"?>
<!-- Generator: Adobe Illustrator 24.0.0, SVG Export Plug-In . SVG Version: 6.00 Build 0)  -->

<svg
   xmlns:dc="http://purl.org/dc/elements/1.1/"
   xmlns:cc="http://creativecommons.org/ns#"
   xmlns:rdf="http://www.w3.org/1999/02/22-rdf-syntax-ns#"
   xmlns:svg="http://www.w3.org/2000/svg"
   xmlns="http://www.w3.org/2000/svg"
   xmlns:sodipodi="http://sodipodi.sourceforge.net/DTD/sodipodi-0.dtd"
   xmlns:inkscape="http://www.inkscape.org/namespaces/inkscape"
   version="1.1"
   id="Layer_1"
   x="0px"
   y="0px"
   viewBox="0 0 200 200"
   xml:space="preserve"
   sodipodi:docname="icon-file-audio.svg"
   width="200"
   height="200"
   inkscape:version="0.92.4 (5da689c313, 2019-01-14)"><metadata
   id="metadata19"><rdf:RDF><cc:Work
       rdf:about=""><dc:format>image/svg+xml</dc:format><dc:type
         rdf:resource="http://purl.org/dc/dcmitype/StillImage" /><dc:title /></cc:Work></rdf:RDF></metadata><defs
   id="defs17" /><sodipodi:namedview
   pagecolor="#ffffff"
   bordercolor="#666666"
   borderopacity="1"
   objecttolerance="10"
   gridtolerance="10"
   guidetolerance="10"
   inkscape:pageopacity="0"
   inkscape:pageshadow="2"
   inkscape:window-width="1920"
   inkscape:window-height="1003"
   id="namedview15"
   showgrid="false"
   inkscape:zoom="1.5330267"
   inkscape:cx="100.19685"
   inkscape:cy="103.47197"
   inkscape:window-x="0"
   inkscape:window-y="0"
   inkscape:window-maximized="1"
   inkscape:current-layer="Layer_1" />
<style
   type="text/css"
   id="style2">
	.st0{fill:#2D2D2D;}
	.st1{fill:#FFFFFF;}
</style>
<path
   class="st0"
   d="m 145.015,126.68978 c 0,2.10014 -0.90006,4.20028 -2.25015,5.55037 l -25.35169,25.35169 c -1.35009,1.5001 -3.30022,2.40016 -5.55037,2.40016 v 0 H 62.509501 c -4.20028,0 -7.500499,-3.30022 -7.500499,-7.5005 V 47.484496 c 0,-4.20028 3.300219,-7.5005 7.500499,-7.5005 H 137.5145 c 4.20028,0 7.5005,3.30022 7.5005,7.5005 z"
   id="path4"
   inkscape:connector-curvature="0"
   style="fill:#2d2d2d;stroke-width:1.50010014" />
<g
   id="g12"
   transform="matrix(1.5001,0,0,1.5001,40.008001,39.983996)">
	<path
   class="st1"
   d="M 36.4,18.2 C 36.3,18.1 36.1,18 35.9,18 c -0.2,0 -0.3,0.1 -0.5,0.2 L 29.8,22 H 27 c -1.1,0 -2,0.9 -2,2 v 4 c 0,1.1 0.9,2 2,2 h 2.9 l 5.6,3.8 c 0.3,0.2 0.7,0.2 1,0 0.3,-0.2 0.5,-0.6 0.5,-1 V 19.1 c -0.1,-0.4 -0.3,-0.7 -0.6,-0.9 z"
   id="path6"
   inkscape:connector-curvature="0"
   style="fill:#ffffff" />
	<path
   class="st1"
   d="m 49.9,12.7 c -0.7,-0.8 -2,-0.9 -2.8,-0.2 -0.8,0.7 -0.9,2 -0.2,2.8 2.7,3 4.1,6.8 4.1,10.7 0,3.9 -1.4,7.7 -4.1,10.7 -0.7,0.8 -0.7,2.1 0.2,2.8 0.4,0.3 0.9,0.5 1.3,0.5 0.5,0 1.1,-0.2 1.5,-0.7 C 53.2,35.7 55,30.9 55,26 55,21.1 53.2,16.3 49.9,12.7 Z"
   id="path8"
   inkscape:connector-curvature="0"
   style="fill:#ffffff" />
	<path
   class="st1"
   d="m 44.9,20.7 c -0.7,-0.8 -2,-0.9 -2.8,-0.2 -0.8,0.7 -0.9,2 -0.2,2.8 0.7,0.7 1,1.7 1,2.7 0,1 -0.4,1.9 -1,2.7 -0.7,0.8 -0.7,2.1 0.2,2.8 0.4,0.3 0.9,0.5 1.3,0.5 0.5,0 1.1,-0.2 1.5,-0.7 1.3,-1.5 2,-3.4 2,-5.3 0.1,-2 -0.7,-3.9 -2,-5.3 z"
   id="path10"
   inkscape:connector-curvature="0"
   style="fill:#ffffff" />
</g>
<g
   aria-label="Audio"
   style="font-style:normal;font-variant:normal;font-weight:bold;font-stretch:normal;font-size:40px;line-height:1.25;font-family:'Miriam Libre';-inkscape-font-specification:'Miriam Libre, Bold';font-variant-ligatures:normal;font-variant-caps:normal;font-variant-numeric:normal;font-feature-settings:normal;text-align:start;letter-spacing:0px;word-spacing:0px;writing-mode:lr-tb;text-anchor:start;fill:#fffffd;fill-opacity:1;stroke:none"
   id="text4531"
   transform="matrix(0.59996799,0,0,0.59996799,40.008001,39.998399)"><path
     d="m 47.169003,154.3387 q -0.4,0 -0.68,-0.24 -0.28,-0.28 -0.28,-0.68 0,-0.2 0.04,-0.32 l 8.68,-26.68 q 0.12,-0.4 0.44,-0.64 0.36,-0.24 0.8,-0.24 h 3.12 q 0.44,0 0.76,0.24 0.36,0.24 0.48,0.64 l 8.68,26.68 q 0.04,0.12 0.04,0.32 0,0.4 -0.28,0.68 -0.28,0.24 -0.68,0.24 h -2.88 q -0.44,0 -0.8,-0.24 -0.32,-0.28 -0.44,-0.68 l -1.8,-5.76 h -9.36 l -1.8,5.76 q -0.12,0.4 -0.48,0.68 -0.32,0.24 -0.76,0.24 z m 13.8,-11.2 -3.28,-10.68 -3.28,10.68 z"
     id="path4533"
     inkscape:connector-curvature="0" /><path
     d="m 81.352128,154.8587 q -2.28,0 -4.12,-1.08 -1.8,-1.08 -2.84,-3 -1.04,-1.92 -1.04,-4.32 v -14.2 q 0,-0.36 0.24,-0.6 0.24,-0.24 0.6,-0.24 h 3.12 q 0.36,0 0.6,0.24 0.24,0.24 0.24,0.6 v 13.6 q 0,2.12 1.08,3.28 1.08,1.12 3.04,1.12 2.36,0 3.72,-1.52 1.4,-1.56 1.4,-4.24 v -12.24 q 0,-0.36 0.24,-0.6 0.24,-0.24 0.6,-0.24 h 3.12 q 0.36,0 0.6,0.24 0.24,0.24 0.24,0.6 v 21.24 q 0,0.36 -0.24,0.6 -0.24,0.24 -0.6,0.24 h -3.12 q -0.36,0 -0.6,-0.24 -0.24,-0.24 -0.24,-0.6 v -1.88 q -1.12,1.52 -2.68,2.4 -1.52,0.84 -3.36,0.84 z"
     id="path4535"
     inkscape:connector-curvature="0" /><path
     d="m 106.51963,154.8587 q -2.32,0 -4.36,-1.24 -2.04,-1.28 -3.280002,-3.4 -1.2,-2.12 -1.2,-4.56 v -5.56 q 0,-2.44 1.2,-4.56 1.200002,-2.12 3.240002,-3.36 2.04,-1.28 4.44,-1.28 1.52,0 2.92,0.48 1.44,0.48 2.48,1.36 v -8.2 q 0,-0.36 0.24,-0.6 0.24,-0.24 0.6,-0.24 h 3.12 q 0.36,0 0.6,0.24 0.24,0.24 0.24,0.6 v 28.96 q 0,0.36 -0.24,0.6 -0.24,0.24 -0.6,0.24 h -2.6 q -0.36,0 -0.6,-0.24 -0.24,-0.24 -0.24,-0.6 v -1.92 q -1.08,1.64 -2.6,2.48 -1.52,0.8 -3.36,0.8 z m 0.68,-4.6 q 1.96,0 3.36,-1.36 1.4,-1.4 1.4,-3.36 v -5.32 q 0,-1.96 -1.4,-3.32 -1.4,-1.4 -3.36,-1.4 -1.96,0 -3.36,1.4 -1.36,1.36 -1.36,3.32 v 5.32 q 0,1.96 1.36,3.36 1.4,1.36 3.36,1.36 z"
     id="path4537"
     inkscape:connector-curvature="0" /><path
     d="m 126.729,128.7387 q -0.36,0 -0.6,-0.24 -0.24,-0.24 -0.24,-0.6 v -4.36 q 0,-0.36 0.24,-0.6 0.24,-0.24 0.6,-0.24 h 2.72 q 0.36,0 0.6,0.24 0.24,0.24 0.24,0.6 v 4.36 q 0,0.36 -0.24,0.6 -0.24,0.24 -0.6,0.24 z m 0.96,25.6 q -0.84,0 -1.44,-0.56 -0.56,-0.6 -0.56,-1.44 v -16.36 h -3.24 q -0.36,0 -0.6,-0.24 -0.24,-0.24 -0.24,-0.6 v -2.88 q 0,-0.36 0.24,-0.6 0.24,-0.24 0.6,-0.24 h 6.04 q 0.84,0 1.4,0.6 0.6,0.56 0.6,1.4 v 16.36 h 3.24 q 0.36,0 0.6,0.24 0.24,0.24 0.24,0.6 v 2.88 q 0,0.36 -0.24,0.6 -0.24,0.24 -0.6,0.24 z"
     id="path4539"
     inkscape:connector-curvature="0" /><path
     d="m 147.27775,154.8587 q -2.6,0 -4.8,-1.24 -2.16,-1.28 -3.44,-3.44 -1.28,-2.16 -1.28,-4.68 v -5.24 q 0,-2.52 1.28,-4.68 1.28,-2.16 3.44,-3.4 2.2,-1.28 4.8,-1.28 2.6,0 4.76,1.28 2.2,1.24 3.48,3.4 1.28,2.16 1.28,4.68 v 5.24 q 0,2.52 -1.28,4.68 -1.28,2.16 -3.48,3.44 -2.16,1.24 -4.76,1.24 z m 0,-4.64 q 1.96,0 3.32,-1.36 1.4,-1.4 1.4,-3.36 v -5.24 q 0,-1.96 -1.4,-3.32 -1.36,-1.4 -3.32,-1.4 -1.96,0 -3.36,1.4 -1.36,1.36 -1.36,3.32 v 5.24 q 0,1.96 1.36,3.36 1.4,1.36 3.36,1.36 z"
     id="path4541"
     inkscape:connector-curvature="0" /></g></svg>